<svg xmlns="http://www.w3.org/2000/svg" height="1024" preserveAspectRatio="none" style="display:block" viewBox="44.854 47.567 1958.207 1952.693" width="1024"><path d="m122.274 1403.09-12.957-31.92a959.9 959.9 0 0 1-27.488-609.689c83.512-295.638 302.301-536.21 588.33-648.113 243.072-93.333 513.121-87.169 751.681 17.157 235.72 105.147 420.27 299.273 513.37 540.003a1057.5 1057.5 0 0 1 55.23 197.927c29.21 175.025 7.67 369.015-64.13 531.595.88 3.5 19.59 28.89 23.02 35.36a190.34 190.34 0 0 1 8.94 162.39c-29.01 70.41-84.86 111.85-158.28 124.05-16.17 2.69-84.78-1.15-91.31 2.5a445 445 0 0 1-17.24 16.97c-31.39 29.5-68.41 57.7-103.77 82.19a985.2 985.2 0 0 1-595.644 176.21 973.53 973.53 0 0 1-534.55-178.91c-38.538-27.05-84.275-63.25-116.524-97.55-2.714-1.06-22.638-.55-26.592-.44-55.163 2.01-99.425-.46-147.612-30.15-87.404-53.86-115.144-164.31-66.346-253.99 6.613-12.15 14.406-23.85 21.872-35.59" fill="#f3ecd6"/><path d="m122.274 1403.09-12.957-31.92a959.9 959.9 0 0 1-27.488-609.689c83.512-295.638 302.301-536.21 588.33-648.113 243.072-93.333 513.121-87.169 751.681 17.157 235.72 105.147 420.27 299.273 513.37 540.003a1057.5 1057.5 0 0 1 55.23 197.927c29.21 175.025 7.67 369.015-64.13 531.595l-1.23.53c-4.93-4.65-10.98-11.43-16.15-15.05 23.27-59.13 40.46-110.04 53.5-172.91a952.5 952.5 0 0 0-62.34-567.672 955.95 955.95 0 0 0-386.34-441.526 858.5 858.5 0 0 0-130.94-65.343c-239.7-95.7-507.764-91.293-744.187 12.237a959.18 959.18 0 0 0-444.46 399.892 1055 1055 0 0 0-67.153 142.007C67.57 844.368 51.985 1028.08 80.994 1188.55c11.534 63.81 33.654 136.04 56.804 196.82-4.514 5.26-10.758 12.99-15.524 17.72m218.678 320.17c10.292-.06 20.584.04 30.873.28 28.261 28.73 80.5 67.78 114.139 90.22a951.46 951.46 0 0 0 526.216 164.57 964.15 964.15 0 0 0 566.16-175.71c28.08-19.56 73.76-53.83 98.29-77.86l1.05-1.04c10.34.12 20.67.33 31 .63a445 445 0 0 1-17.24 16.97c-31.39 29.5-68.41 57.7-103.77 82.19a985.2 985.2 0 0 1-595.644 176.21 973.53 973.53 0 0 1-534.55-178.91c-38.538-27.05-84.275-63.25-116.524-97.55" fill="#8c3c3c"/><path d="m263.625 1339.83-4.56-.22c-8.873-7.27-35.255-99.28-38.766-113.18a826.07 826.07 0 0 1 33.688-506.99c16.376-40.826 40.72-87.716 63.135-125.277 111.982-186.9 293.851-321.448 505.336-373.849A836.66 836.66 0 0 1 1349 261.928c47.63 20.583 87.37 44.39 131.54 70.782-40.78-11.29-58.43-14.867-99.84-17.59-16.35.681-33 1.148-49.26 2.78-52.76 6.71-99.77 21.24-145.54 48.77-14.37 10.335-28.19 19.702-42.44 30.423-18.82 15.409-29.91 26.405-46.1 44.288-11.21-20.969-22.16-46.629-33.35-68.157-5.1-9.833-24.81-49.176-26.83-57.007-2.51-3.798-10.49-21.504-13.12-27.055l-26.334-55.023c-30.883 70.532-65.96 148.85-94.157 220.093-5.566 12.469-14.646 35.715-20.354 46.339-9.362 25.56-21.008 50.82-31.688 75.847-4.456 10.444-12.119 26.135-15.61 36.563a2752 2752 0 0 0-13.062 31.849c-5.546 13.505-14.209 36.059-21.128 48.462a381 381 0 0 1-21.935 3.27c-5.244.806-20.137 3.122-25.281 3.335a4842 4842 0 0 1-49.125 7.338c-8.194 1.153-20.681 2.468-28.262 4.074a885 885 0 0 1-38.935 4.554 8229 8229 0 0 1-140.781 20.123c-19.489 3.889-46.833 5.001-64.312 8.987-24.297 1.982-50.024 5.819-74.145 9.565-14.739 2.289-32.995 4.607-47.304 7.881 23.284 21.974 58.15 49.597 83.245 71.161 15.408 10.517 46.771 38.982 61.862 52.116 14.038 8.459 29.631 23.166 42.445 33.696 23.105 18.988 45.823 39.114 68.861 58.148 5.637 4.071 25.625 21.116 31.134 26.38 19.542 15.22 40.536 35.78 58.837 49.41 5.795 4.36 11.776 8.83 16.4 14.43.046 2.47.465 1.43-.707 3.32-3.783 14.55-8.771 39.98-10.437 55.03-4.175 3.79-35.232 24.98-40.416 27.24-10.207 10.24-31.871 25.68-43.867 34.25l-53.712 38.32c-5.243 3.75-29.992 22.43-33.284 24.22-37.24 26.66-59.576 38.27-42.535 89.9l-143.594-.19c-13.436.1-28.999.53-42.254-.02" fill="#8c3c3c"/><path d="M263.079 1308.36c18.05-8.83 50.734-21.24 70.602-29.8l167.267-71.92c33.22-14.29 66.069-29.59 99.245-43.99 7.098-3.08 15.364-7.28 22.678-9.3-10.207 10.24-31.871 25.68-43.867 34.25l-53.712 38.32c-5.243 3.75-29.992 22.43-33.284 24.22-37.24 26.66-59.576 38.27-42.535 89.9l-143.594-.19c-13.436.1-28.999.53-42.254-.02 3.653-.19 6.477-.02 9.831-1.45-1.045-5.8-8.023-23.6-10.377-30.02" fill="#c59990"/><path d="m305.879 1339.85-.129-1.52c22.248-10.45 176.513-88.35 186.258-88.19-37.24 26.66-59.576 38.27-42.535 89.9z" fill="#8c3c3c"/><path d="M658.031 1053.33c5.795 4.36 11.776 8.83 16.4 14.43.046 2.47.465 1.43-.707 3.32-15.408 5.91-38.238 11.36-54.751 15.74l-92.838 24.32a13723 13723 0 0 1-295.59 74.99c-3.157-15.23-6.417-31.1-8.018-46.57 61.399-9.47 123.011-22.52 184.044-34.44a9827 9827 0 0 0 251.46-51.79m-442.612-82.363c22.411-.194 49.397 1.621 72.466 2.065l187.184 3.096c30.179.448 62.919 1.777 92.991 1.412 5.637 4.071 25.625 21.116 31.134 26.38-45.336 2.49-89.784 3.32-135.142 4.82a9709 9709 0 0 0-250.137 10.19 712 712 0 0 1 1.504-47.963m440.059-669.935 39.169-19.656c38.587 97.685 82.87 193.919 123.793 290.665 5.81 13.734 12.197 26.945 17.477 40.94a2752 2752 0 0 0-13.062 31.849c-3.645-5.053-11.299-22.511-14.305-28.98q-12.777-27.81-26.06-55.38a13371 13371 0 0 1-92.662-188.389c-10.689-22.237-25.064-48.882-34.35-71.049m-115.517 71.874c28.426 41.055 60.343 83.121 90.352 123.169A11704 11704 0 0 0 733.12 633.183c12.886 17.088 26.071 34.044 38.024 51.803 2.408 3.576 5.481 8.8 8.648 11.576-5.244.806-20.137 3.122-25.281 3.335-79.484-101.532-168.608-199.262-247.852-300.203 9.64-8.423 23.053-19.355 33.302-26.788M412.582 491.659c28.152 21.228 250.945 217.986 257.36 219.426 2.052.46 5.022.156 7.182.224a885 885 0 0 1-38.935 4.554c-16.458-10.94-31.598-23.277-47.257-35.314a4888 4888 0 0 0-56.903-42.885l-91.528-69.731c-18.07-13.704-40.68-29.606-57.409-43.966 8.457-10.721 18.125-22.457 27.49-32.308M817.52 239.731c13.933-3.993 29.675-7.508 43.868-10.969 8.377 59.372 21.733 119.488 33.045 178.431 2.937 15.305 5.403 32.04 9.136 47.039-5.566 12.469-14.646 35.715-20.354 46.339-1.85-5.543-4.529-18.879-6.068-25.193l-13.926-56.132zM245.733 798.028c36.126 8.161 72.521 18.575 108.667 26.793 8.444 1.92 33.651 8.842 40.492 8.759 15.408 10.517 46.771 38.982 61.862 52.116-17.395-3.811-38.186-6.375-56.446-10.003-55.221-10.972-111.384-22.984-166.833-32.452a861 861 0 0 1 12.258-45.213m69.04-162.475c55.145 29.306 109.092 61.242 164.456 90.209 6.069 3.175 12.412 6.56 18.179 10.224-19.489 3.889-46.833 5.001-64.312 8.987l1.377-1.205c-6.221-6.791-121.282-59.786-139.125-68.774a383 383 0 0 1 19.425-39.441M1177.7 227.298c13.81 2.528 27.99 5.857 42.01 8.494-2.4 10.99-7.8 27.561-11.04 39.049a2209 2209 0 0 0-15.65 59.392c-1.96 7.756-6.9 25.173-7.12 32.437-14.37 10.335-28.19 19.702-42.44 30.423 1.77-14.507 8.54-43.386 11.66-58.501 7.77-37.047 15.3-74.146 22.58-111.294m-178.164-14.063c14.004.089 28.004.059 42.014-.091-.85 29.561-1.41 59.278-3.25 88.794-.28 4.488-.39 9.893-1.12 14.279-2.51-3.798-10.49-21.504-13.12-27.055l-26.334-55.023a312 312 0 0 0 1.81-20.904m345.504 67.008c14.82 6.328 28.48 12.803 43.02 19.797l-7.36 15.08c-16.35.681-33 1.148-49.26 2.78 2.1-9.4 9.9-28.195 13.6-37.657" fill="#c59990"/><path d="m1350.75 325.431.36-.039c96.22-5.928 201.66 34.111 270.39 100.447 63.4 61.206 103.4 142.515 112.28 228.751a344.37 344.37 0 0 1-77.23 251.481c-65.35 79.88-161.12 126.309-263.01 136.529-2.17.19-4.34.37-6.51.53a353.82 353.82 0 0 1-260.23-87.013 343.7 343.7 0 0 1-116.25-232.125 372.64 372.64 0 0 1 92.67-275.414 355.72 355.72 0 0 1 247.53-123.147" fill="#8c3c3c"/><path d="M1081.23 856.943c-45.26-85.927-55.33-165.969-27.09-260.443 25-83.657 87.75-161.764 165.21-202.718a331.76 331.76 0 0 1 252.77-23.384 335.07 335.07 0 0 1 195.64 165.531c78.93 150.967 32.16 328.186-111.51 420.171-3.84 2.458-11.12 6.644-14.41 9.351-6.79 14.357-113.15 52.329-125.72 44.979-33.76 4.57-53.17 5.94-87.45 3.86-.1.85.05.3-1.11 1.31-19.3-.97-100.43-17.069-109.1-32.164-5.45-3.687-30.18-16.949-37.14-20.826-18.67 1.676-98.91-85.006-100.09-105.667" fill="#fff"/><path d="M1081.23 856.943c27.58 45.34 56.26 75.78 100.09 105.667-18.67 1.676-98.91-85.006-100.09-105.667m460.61 108.508c-6.79 14.357-113.15 52.329-125.72 44.979 53.4-10.16 77.93-18.887 125.72-44.979m-323.38 17.985c39.04 16.964 67.41 26.254 110.21 30.854-.1.85.05.3-1.11 1.31-19.3-.97-100.43-17.069-109.1-32.164" fill="#330d0c"/><path d="M1348.4 364.151a327.95 327.95 0 0 1 141.26 20.368c9.07 3.019 31.65 13.385 39.4 18.856 43.08 25.949 69.95 46.964 100.96 87.196 5.38 5.934 19.23 27.195 22.74 34.665 26 43.239 36.36 78.647 43.75 128.111.82 9.492 1.4 25.275 1.37 34.9-.06 19.016-.87 34.696-4.3 53.691 2.58 8.613-1.67 20.183-5.91 27.899-3.97 12.461-9.43 30.862-15.78 41.637a340.03 340.03 0 0 1-193.81 175.035c-18.83 6.705-44.7 13.244-64.76 15.971-8.43 2.88-48.62 5.46-57.54 3.58-3.79 1.75-17.7.57-22.42.15a314.9 314.9 0 0 1-111.27-30.568 310.7 310.7 0 0 1-159.17-179.208c-32.88-94.432-15.54-177.135 26.49-263.699 2.41 4.303 8.18 15.14 10.91 18.451 4.79 3.373 4.04 8.493 9.41 9.829.85-.973 1.66-1.992 1.56-3.326-.45-5.812 6.48-12.05 7.4-15.771 1.08-4.38-7.34-11.092-6.04-17.988-1.4-3.833-5.08-11.031-6.97-15.002 31.7-51.137 88.15-97.622 143.39-120.58 17.91-7.445 34.33-11.95 52.93-16.943 13.34-3.337 32.79-5.916 46.4-7.254" fill="#8c3c3c"/><path d="M1348.4 364.151a327.95 327.95 0 0 1 141.26 20.368c9.07 3.019 31.65 13.385 39.4 18.856-15.61 17.438-32.14 38.303-47.09 56.497a12756 12756 0 0 0-83.36 102.077c-9.92 12.179-114.16 134.953-114.88 139.675-2.3-1.014-27-2.861-31.4-3.259-19.37-1.96-39.05-3.042-58.32-5.747-.78-.685-1.57-1.369-2.35-2.053-5.18-9.5-9.58-17.868-14.28-27.655-10.14-23.387-28.89-60.138-40.58-82.692-3.41 4.91-13.14 18.035-14.22 23.067-19.15 36.323-34.52 74.14-35.6 115.869l-2.67 1.838c-8.45-59.916 1.46-100.239 23.52-154.771-2.88-5.32-5.02-9.517-7.51-15.035 4.79 3.373 4.04 8.493 9.41 9.829.85-.973 1.66-1.992 1.56-3.326-.45-5.812 6.48-12.05 7.4-15.771 1.08-4.38-7.34-11.092-6.04-17.988-1.4-3.833-5.08-11.031-6.97-15.002 31.7-51.137 88.15-97.622 143.39-120.58 17.91-7.445 34.33-11.95 52.93-16.943 13.34-3.337 32.79-5.916 46.4-7.254" fill="#8c3c3c"/><path d="M1302 371.405c13.34-3.337 32.79-5.916 46.4-7.254-1.32 2.658-7.94 15.293-8.24 17.165 46.05-4.691 88.15-.914 127.86 25.282-49-17.789-103.95-5.288-150.06 15.497-12.09 5.106-44.27 21.951-54.91 30.277-55.03 38.476-86.94 74.136-126.25 127.846-3.41 4.91-13.14 18.035-14.22 23.067-19.15 36.323-34.52 74.14-35.6 115.869l-2.67 1.838c-8.45-59.916 1.46-100.239 23.52-154.771-2.88-5.32-5.02-9.517-7.51-15.035 4.79 3.373 4.04 8.493 9.41 9.829.85-.973 1.66-1.992 1.56-3.326-.45-5.812 6.48-12.05 7.4-15.771 1.08-4.38-7.34-11.092-6.04-17.988-1.4-3.833-5.08-11.031-6.97-15.002 31.7-51.137 88.15-97.622 143.39-120.58 17.91-7.445 34.33-11.95 52.93-16.943" fill="#fbfaf1"/><path d="M1302 371.405q-5.37 11.074-10.95 22.041c-83.44 28.637-128.27 70.033-170.1 147.158-1.25-2.596-7.12-15.445-8.3-16.674-1.4-3.833-5.08-11.031-6.97-15.002 31.7-51.137 88.15-97.622 143.39-120.58 17.91-7.445 34.33-11.95 52.93-16.943" fill="#8c3c3c"/><path d="M1302 371.405c13.34-3.337 32.79-5.916 46.4-7.254-1.32 2.658-7.94 15.293-8.24 17.165-6.96 1.954-14.67 2.855-21.88 4.421-9.49 2.062-18.01 4.775-27.23 7.709q5.58-10.967 10.95-22.041m187.66 13.114c9.07 3.019 31.65 13.385 39.4 18.856-15.61 17.438-32.14 38.303-47.09 56.497a12756 12756 0 0 0-83.36 102.077c-9.92 12.179-114.16 134.953-114.88 139.675-2.3-1.014-27-2.861-31.4-3.259 9.22-10.95 19.49-25.644 28.37-37.323l70.47-93.721c36.17-46.667 71.96-93.627 107.36-140.875 10.12-13.645 21.56-28.176 31.13-41.927" fill="#c59990"/><path d="M1263.05 452.372c1.67 9.117-73.25 169.1-78.72 190.396-.38 1.485-6.28 18.594-6.95 20.142-10.14-23.387-28.89-60.138-40.58-82.692 39.31-53.71 71.22-89.37 126.25-127.846" fill="#8c3c3c"/><path d="M1263.05 452.372c10.64-8.326 42.82-25.171 54.91-30.277-21.24 41.032-42.82 90.018-62.83 132.432l-46.11 98.976c-5.38 11.69-12.47 25.459-17.36 37.062-5.18-9.5-9.58-17.868-14.28-27.655.67-1.548 6.57-18.657 6.95-20.142 5.47-21.296 80.39-181.279 78.72-190.396" fill="#c59990"/><path d="M1529.06 403.375c43.08 25.949 69.95 46.964 100.96 87.196 5.38 5.934 19.23 27.195 22.74 34.665 26 43.239 36.36 78.647 43.75 128.111.82 9.492 1.4 25.275 1.37 34.9-7.98 2.52-19.75 9.009-28.3 12.478-1.86-12.088-3.31-21.12-5.91-33.086-3.21-12.707-9.68-26.967-15.27-38.996 2.22 15.666 4.28 28.778 3.75 44.621-.61 10.845-2.88 28.431-6.44 38.655-2.72 8.944-5.35 18.103-8.71 26.812a2645 2645 0 0 0-45.32-3.844c-14.24-3.209-39.1-3.66-53.8-5.276-6.69-.735-11.08-.027-18.3-1.499-35.94-3.372-72.72-8.473-108.73-12.394-11.76-1.539-23.83-2.495-35.65-3.585-26.48-1.551-64.09-7.209-91.47-10.509.72-4.722 104.96-127.496 114.88-139.675 27.61-34.17 55.4-68.196 83.36-102.077 14.95-18.194 31.48-39.059 47.09-56.497" fill="#8c3c3c"/><path d="M1652.76 525.236c26 43.239 36.36 78.647 43.75 128.111.82 9.492 1.4 25.275 1.37 34.9-7.98 2.52-19.75 9.009-28.3 12.478-1.86-12.088-3.31-21.12-5.91-33.086-3.21-12.707-9.68-26.967-15.27-38.996 2.22 15.666 4.28 28.778 3.75 44.621-.61 10.845-2.88 28.431-6.44 38.655-2.72 8.944-5.35 18.103-8.71 26.812a2645 2645 0 0 0-45.32-3.844c-14.24-3.209-39.1-3.66-53.8-5.276-6.69-.735-11.08-.027-18.3-1.499-35.94-3.372-72.72-8.473-108.73-12.394l-.53-.712c1.41-2.793 219.03-170.966 242.44-189.77" fill="#8c3c3c"/><path d="M1652.15 673.264c-.61 10.845-2.88 28.431-6.44 38.655-2.72 8.944-5.35 18.103-8.71 26.812a2645 2645 0 0 0-45.32-3.844c-14.24-3.209-39.1-3.66-53.8-5.276-6.69-.735-11.08-.027-18.3-1.499 13.72.992 42.92-14.566 56.37-20.661a7390 7390 0 0 1 76.2-34.187" fill="#c59990"/><path d="m1591.68 734.887-.49-1.255c2.04-1.474 16.14-6.49 19.31-7.466 7.27-2.243 29.28-15.284 35.21-14.247-2.72 8.944-5.35 18.103-8.71 26.812a2645 2645 0 0 0-45.32-3.844" fill="#8c3c3c"/><path d="M1696.51 653.347c.82 9.492 1.4 25.275 1.37 34.9-7.98 2.52-19.75 9.009-28.3 12.478-1.86-12.088-3.31-21.12-5.91-33.086 10.66-4.073 21.49-9.909 32.84-14.292m-66.49-162.776c5.38 5.934 19.23 27.195 22.74 34.665-23.41 18.804-241.03 186.977-242.44 189.77l.53.712c-11.76-1.539-23.83-2.495-35.65-3.585 7.98-6.182 16.93-14.306 24.37-21.197 74.64-69.123 154.67-132.659 230.45-200.365" fill="#c59990"/><path d="M1652.15 673.264c.53-15.843-1.53-28.955-3.75-44.621 5.59 12.029 12.06 26.289 15.27 38.996 2.6 11.966 4.05 20.998 5.91 33.086 8.55-3.469 20.32-9.958 28.3-12.478-.06 19.016-.87 34.696-4.3 53.691 2.58 8.613-1.67 20.183-5.91 27.899-3.97 12.461-9.43 30.862-15.78 41.637a340.03 340.03 0 0 1-193.81 175.035c-18.83 6.705-44.7 13.244-64.76 15.971-8.43 2.88-48.62 5.46-57.54 3.58 7.83-5.19 57.22-28.569 60.67-33.175-28.3 3.931-57 4.257-85.39.971-18.27-2.205-37.32-6.253-55.73-9.135 13.98-1.398 30.93-.5 45.85-1.724 54.52-4.472 115.04-18.141 158.47-53.107 16.43-13.236 19.14-21.604 32.24-37.075 1.84-2.166 16.65-11.564 20.22-14.022a288.1 288.1 0 0 0 61.82-99.297c8.52 1.29 24.9 2.068 31.69 3.901 2.24-3.029 9.47-20.271 11.38-24.666 3.36-8.709 5.99-17.868 8.71-26.812 3.56-10.224 5.83-27.81 6.44-38.655" fill="#fbfaf1"/><path d="M1656.76 791.001c5.53 6.766 9.39 14.094 15.13 20.473a340.03 340.03 0 0 1-193.81 175.035c-18.83 6.705-44.7 13.244-64.76 15.971-8.43 2.88-48.62 5.46-57.54 3.58 7.83-5.19 57.22-28.569 60.67-33.175 3.93-2.011 32.72-3.37 39.15-6.906 1.95-1.068 15.77-4.018 18.52-4.292 22.62-10.339 45.17-20.135 66.48-32.999 5.09-4.662 16.44-12.596 22.38-16.304 39.62-32.515 75.26-72.988 93.78-121.383" fill="#8c3c3c"/><path d="M1416.45 972.885c3.93-2.011 32.72-3.37 39.15-6.906 1.95-1.068 15.77-4.018 18.52-4.292-8.33 6.476-59.36 36.931-60.8 40.793-8.43 2.88-48.62 5.46-57.54 3.58 7.83-5.19 57.22-28.569 60.67-33.175m124.15-44.197c5.09-4.662 16.44-12.596 22.38-16.304 15.58 11.993-7.4 28.134-22.38 16.304" fill="#f3ecd6"/><path d="M1593.93 759.496c8.52 1.29 24.9 2.068 31.69 3.901-21.39 34.04-39.56 58.19-72.45 82.879-5.11 3.832-15.02 10.968-21.06 12.517a288.1 288.1 0 0 0 61.82-99.297" fill="#e0bb90"/><path d="M1669.58 700.725c8.55-3.469 20.32-9.958 28.3-12.478-.06 19.016-.87 34.696-4.3 53.691-5.12-.334-19.82-.478-23.03-3.724 1.49-12.114.68-25.44-.97-37.489" fill="#8c3c3c"/><path d="M1664.42 767.896c4.44.381 20.48 1.099 23.25 1.941-3.97 12.461-9.43 30.862-15.78 41.637-5.74-6.379-9.6-13.707-15.13-20.473.62-3.399 6.18-17.316 7.66-23.105" fill="#e0bb90"/><path d="M1664.42 767.896c1.46-8.8 4.35-20.078 6.13-29.682 3.21 3.246 17.91 3.39 23.03 3.724 2.58 8.613-1.67 20.183-5.91 27.899-2.77-.842-18.81-1.56-23.25-1.941M1136.8 580.218c11.69 22.554 30.44 59.305 40.58 82.692 4.7 9.787 9.1 18.155 14.28 27.655.78.684 1.57 1.368 2.35 2.053 19.27 2.705 38.95 3.787 58.32 5.747 4.4.398 29.1 2.245 31.4 3.259 27.38 3.3 64.99 8.958 91.47 10.509 11.82 1.09 23.89 2.046 35.65 3.585 36.01 3.921 72.79 9.022 108.73 12.394 7.22 1.472 11.61.764 18.3 1.499 14.7 1.616 39.56 2.067 53.8 5.276a2645 2645 0 0 1 45.32 3.844c-1.91 4.395-9.14 21.637-11.38 24.666-6.79-1.833-23.17-2.611-31.69-3.901-37-3.991-74.33-6.818-111.36-10.908-101.56-11.216-204.37-24.578-306.05-34.065-17.79-37.008-35.26-74.758-53.94-111.238 1.08-5.032 10.81-18.157 14.22-23.067" fill="#f3ecd6"/><path d="M1086.98 719.154c.02 3.019.46 7.285-.94 9.69-1.35-3.508-1.34-4.239-1.73-7.852z" fill="#fff"/><path d="M1002.75 114.45c107.14-5.796 239.43 17.73 339.37 55.049 233.88 87.336 407.97 254.695 512.5 480.149a905.7 905.7 0 0 1 69.94 520.612c-11.69 68.74-29.07 124.66-52.99 189.76-24.76-8.96-27.05-13.42-55.44-16.57 38.93-109.73 56.94-192.62 59.72-309.7 4.57-192.985-61.28-379.99-178.56-532.399-18.6-23.203-37.18-52.666-58.87-73.106-48.89-46.076-107.91-92.992-164.8-128.274a841.15 841.15 0 0 0-428.87-127.061 881.4 881.4 0 0 0-263.264 34.879C567.845 271.272 387.804 416.346 280.342 611.6a845.24 845.24 0 0 0-88.268 598.38 759 759 0 0 0 22.307 81.49c5.459 16.32 12.754 33.76 17.454 50-22.598 3.01-35.737 9.02-56.045 18-7.847-24.96-17.681-49.28-25.43-74.78a870.7 870.7 0 0 1-38.617-229.81c-7.259-242.209 82.018-477.381 248.182-653.758A904.4 904.4 0 0 1 882.21 124.633c41.186-6.366 79.039-8.761 120.54-10.183" fill="#8c3c3c"/><path d="M1732.7 600.485a876.3 876.3 0 0 1 71.01 144.769c57.35 155.085 61 327.876 21.51 487.716-7.9 31.98-21.67 77.37-34.84 107.51l-20.29-.31c-6.61.04-13.34-.05-19.97-.09-77.41.82-154.82.85-232.23.08-29.13.79-59.4.57-88.56.45-8.41-.03-36.81.76-43.62-.42-3.38-22.4-11.49-52.31-16.16-75.8-2.27-6.56-6.77-30.1-8.47-38.07-5.55-17.54-13.62-59.03-17.68-78.46-1.66-9.24-3.68-17.89-5.8-27.01-4.75-19.26-8.5-40.98-12.65-60.7-.63-1.52-2.21-8.23-2.71-10.2 25.11 4.13 48.95.5 72.72 1.36 40.84-4.72 81.93-14.15 119.95-29.99 12.56-5.24 23.83-11.97 35.75-16.98l.99-.41a555 555 0 0 0 44.44-29.114c38.04-23.966 73.19-69.511 98.29-105.968a691 691 0 0 0 22.89-45.754c28.63-71.768 35.97-147.432 15.43-222.609" fill="#8c3c3c"/><path d="M1343.4 1147.86c88.62 41.2 177 82.93 265.13 125.18l103.99 49.06c10.07 4.87 28.54 12.89 37.6 17.98-77.41.82-154.82.85-232.23.08-29.13.79-59.4.57-88.56.45-8.41-.03-36.81.76-43.62-.42-3.38-22.4-11.49-52.31-16.16-75.8-2.27-6.56-6.77-30.1-8.47-38.07-5.55-17.54-13.62-59.03-17.68-78.46" fill="#8c3c3c"/><path d="M1361.08 1226.32c23.2 14.32 50.41 36.66 72.77 52.96 26.86 19.57 58.94 39.72 84.04 60.88-29.13.79-59.4.57-88.56.45-8.41-.03-36.81.76-43.62-.42-3.38-22.4-11.49-52.31-16.16-75.8-2.27-6.56-6.77-30.1-8.47-38.07" fill="#c59990"/><path d="M1369.55 1264.39c4.41 1.74 16.04 13.36 20.9 17.06 23.83 18.11 46.42 40.34 69.89 58.56-16.26-.08-61.09-1.32-74.63.18-3.38-22.4-11.49-52.31-16.16-75.8" fill="#8c3c3c"/><path d="M1337.6 1120.85c25.81 12.05 56.79 22.98 83.52 34.59 119.18 51.77 243.06 98.93 361.74 151.52-4.04 10.98-8.05 22.53-12.77 33.21-6.61.04-13.34-.05-19.97-.09-9.06-5.09-27.53-13.11-37.6-17.98l-103.99-49.06c-88.13-42.25-176.51-83.98-265.13-125.18-1.66-9.24-3.68-17.89-5.8-27.01m-15.36-70.9c25.11 4.13 48.95.5 72.72 1.36 9.17 3.72 39.15 9.21 50.54 11.63 37.65 8.17 75.4 15.91 113.24 23.19 86.52 17.09 176.9 37.76 263.1 53.34-1.94 13.88-4.27 27.7-7 41.45-62.29-13.15-122.94-29.75-184.48-45.55l-141.63-35.35c-33.4-8.81-66.91-17.23-100.52-25.25-19.99-4.9-43.1-10.94-63.26-14.62-.63-1.52-2.21-8.23-2.71-10.2m273.85-75.134c67.85 2.44 137.77-3.2 205.83-2.999 10.26.03 20.72-.79 30.96-.641.72 16.232 1.37 31.524 1.32 47.754-67.09-3.85-134.22-7.31-201.36-10.36-24.99-1.28-57.01-4.34-81.19-4.64a555 555 0 0 0 44.44-29.114m121.18-151.722c4.49 1.332 75.28-18.256 85.39-20.879a2643 2643 0 0 1 8.19 43.213c-33.84 5.452-67.69 13.819-101.43 20.022-4.86.892-10.37 1.934-15.04 3.398a691 691 0 0 0 22.89-45.754" fill="#c59990"/><path d="M998.319 292.617c3.661 3.184 73.281 150.566 82.231 168.757-95.852 128.857-108.134 286.914-24.69 425.645-9.13 2.032-13.16 3.218-20.98 8.428-20.92-7.724-63.071-22.845-57.893 16.039-5.802 6.013-9.637 9.643-16.009 15.02a174 174 0 0 0-5.816-.932c-6.66-.997-13.439-1.325-19.281 2.364-22.671 14.313-45.486 32.821-67.179 48.617L691.884 1106.13l7.527-50.23c-6.47-6.16-16.221-13.72-23.247-19.65l-47.505-40.279c-11.855-10.712-28.439-23.432-41.101-33.874l-68.827-57.568c-48.249-40.462-106.016-91.046-155.37-127.931 32.249-3.132 68.121-8.619 100.443-12.948l185.052-25.429 113.127-15.033c17.912-2.479 38.785-4.928 56.238-8.532 5.107-9.903 11.863-27.493 16.357-38.372l29.946-72.056 77.698-181.936c17.931-42.133 36.971-88.37 56.097-129.675m112.801 663.504c2.53.601 28.06 21.792 33.38 25.813 45.7 34.506 97.35 54.556 153.1 66.166 18.71 98.38 42.25 194.36 63.05 291.99l-142.74.9c-19.28-11.68-40-22.27-59.55-33.59-53.15-30.78-110.45-60.77-162.341-93.12-11.761 6.4-30.913 19.22-42.973 26.63a3662 3662 0 0 1-81.679 48.95c-42.808 26.82-88.567 51.94-132.579 76.85-34.912 19.76-70.629 40.82-106.24 59.19 6.073-30.94 9.231-63.66 14.027-94.9 1.893-12.33 3.791-25.82 4.687-38.19 11.929-8.05 26.673-19.68 38.643-28.53l71.33-52.3A17182 17182 0 0 0 1007.55 1031c4.7-3.52 12.95-17.79 13.65-17.86 27.48-2.81 32.24-12.97 34.54-49.855 23.9 6.719 32.14 1.066 55.38-7.164M663.757 1723.15c16.57.16 56.978-.84 70.264.7l110.902.08 41.13.01 94.929-.1c13.069-.9 45.088-.99 58.258-.11 39.14.06 79.71.72 118.73.16l39.2.09 141.56.03c13.42-.07 129.97-1.53 131.78-.36l-1.31.62c-72.07 43.31-143.48 77.5-225.35 99.01a845.9 845.9 0 0 1-572.557-48.16c-33.707-15.36-65.346-33.62-97.267-52.26 29.909.4 59.82.5 89.731.29" fill="#8c3c3c"/><path d="M980.982 1723.84c13.069-.9 45.088-.99 58.258-.11 1.55 36.04 4.06 77.58 3.84 113.27-14.85-.02-29.71-.19-44.561-.51.233-37.59 2.491-74.86 3.601-112.41-7.048.15-14.097.07-21.138-.24m-136.059.09 41.13.01a2480 2480 0 0 0-24.796 97.05 689 689 0 0 1-46.067-13.52c9.973-27.57 18.996-56.47 29.733-83.54m313.047-.04 39.2.09c9.04 28.49 20.06 57.75 29.77 86.26-14.55 3.79-29.2 7.23-43.92 10.31zm-494.213-.74c16.57.16 56.978-.84 70.264.7-5.504.45-14.42.2-20.191.21-8.067 11.84-16.464 28.93-25.348 42.36-12.057-5.26-27.647-13.88-39.416-20.08 2.891-4.27 13.668-19.34 14.691-23.19m674.973.86c13.42-.07 129.97-1.53 131.78-.36l-1.31.62c-6.5-.59-21.05-.18-28.14-.17l-53.45.04c4.01 7.18 8.18 14.26 12.52 21.24-13.16 5.91-27.08 13.62-39.94 20.44-6.99-12.19-14.93-28.99-21.46-41.81" fill="#c59990"/><path d="M944.261 934.207c3.624-.33 7.369-.303 10.938.466 18.566 3.998 33.945 20.988 43.925 36.267 7.466 11.434 14.846 26.305 11.736 40.28-.1.47-.23.93-.33 1.4-.28 1.21-.47 2.3-1.11 3.4-7.26 12.59-283.617 211.37-316.056 235.06a7295 7295 0 0 1-112.047 81.41c-17.574 12.55-34.433 29.18-55.746 33.46-4.073.21-9.036.38-13.128.13-30.246-1.79-56.188-31.65-54.551-61.7.376-6.9 3.908-18.55 9.22-23.17 12.682-11.03 26.869-20.48 40.456-30.42a4665 4665 0 0 1 73.904-53.4l199.246-143.89 109.278-81.037c13.022-9.68 41.284-32.274 54.265-38.256"/><path d="M943.058 946.045q2.759.42 5.485 1.014c4.483 1.019 9.14 3.662 11.456 7.756a11 11 0 0 1 .747 9.114c-3.024 8.45-18.817 16.594-26.593 22.007a1823 1823 0 0 0-41.157 29.854 23258 23258 0 0 1-244.356 178.52c-28.681 20.9-58.368 41.92-86.658 63.06a2166 2166 0 0 1-44.679 32.66c-6.727 4.81-17.306 12.89-24.374 16.42-6.3.93-12.189 1.15-16.278-4.75-2.081-3.01-2.602-6.53-1.704-10.07 1.289-5.08 5.248-8.56 9.267-11.59 12.817-9.72 25.878-19.14 38.826-28.68 21.268-15.68 43.052-30.63 64.402-46.2l217.602-158.19 86.268-63.508c13.016-9.768 38.51-30.058 51.746-37.417" fill="#fff"/><path d="m1514.65 1723.48 96.7.43-33.85 25.6a877 877 0 0 1-109.55 70.66c-50 27.1-102.16 50.02-155.95 68.5a922.86 922.86 0 0 1-556.566 6.17c-100.387-30.46-203.289-84.16-287.193-147.44-4.299-3.24-26.993-20.85-28.62-23.9 29.34 1.1 65.057.16 95.055.38 109.856 70.94 209.47 113.85 338.784 137.93 223.6 39.91 453.93-9.78 641.19-138.33m-468.36-322.79c2.98 4.98 17.16 46.52 20.61 55.49l73.32 194.86-45.37-.03a625 625 0 0 0-13.1-33.14c-24.53-.38-49.06-.61-73.59-.68-4.28 11.24-8.401 22.55-12.357 33.91q-45.947.045-91.892-.39c-12.165-23.48-22.377-51.71-34.227-76.16l-12.271.85-.057 75.59-43.816.39c.362-26.29.482-52.59.361-78.88l.028-169.15c20.175-.12 41.325-1.21 61.614.82 59.407 5.93 91.134 68.24 68.43 121.54-6.847 16.07-18.98 25.56-32.544 35.91 12.579 28.44 27.003 58.17 40.531 86.07 10.899-26.08 21.052-54.51 31.13-81.02l42.94-112.17c6.69-17.7 13.15-36.37 20.26-53.81" fill="#8c3c3c"/><path d="M857.804 1448.04c13.136.13 24.175 1.9 34.739 10.83a39 39 0 0 1 13.879 27.26c.82 13.27-4.131 22.32-12.291 31.93-11.302 10.1-22.056 11.4-36.304 13.43-.188-27.82-.195-55.64-.023-83.45m186.866 65.7c4.11 4 18.71 50.69 21.78 60.09l-19.95.18-23.12.06c6.38-19.69 14.31-40.72 21.29-60.33" fill="#f3ecd6"/><path d="M451.088 1402.44c27.33-.06 47.511 7.18 68.796 24.66a128.55 128.55 0 0 1 45.695 86.25c6.204 65.34-37.328 132.52-105.327 138.93-28.885.83-52.007-9.84-73.901-28.11-78.892-65.83-42.557-214.78 64.737-221.73" fill="#8c3c3c"/><path d="M446.536 1451.18c89.763-5.51 105.431 132.48 18.552 150.67a62.95 62.95 0 0 1-45.141-9.43c-54.19-35.05-41.828-127.27 26.589-141.24" fill="#f3ecd6"/><path d="M1156.47 1405.02c42.14-.09 83.85-6.42 117.85 23.74 52.37 46.43 54.96 138.96 8.91 190.47l-.76.79c-37.18 38.21-76.49 29.99-126.72 30.45z" fill="#8c3c3c"/><path d="M1199.7 1449.89c17.67-.52 31.29.11 45.87 11.85 16.17 13.03 24.86 33.15 26.77 53.45 2.5 26.59-1.04 49.89-17.91 71-.92.97-1.87 1.92-2.84 2.85-16.9 16.04-30.86 16.64-52.6 16.25-.36-51.8-.12-103.61.71-155.4" fill="#f3ecd6"/><path d="M1515.17 1406.41c46.88.71 96.26-10.41 127.3 33.86a84.32 84.32 0 0 1 14.27 64.2c-4.89 26.21-19.09 43.75-40.48 58.43a2051 2051 0 0 0 49.13 88.95l-40.05.07-13.41.05c-7.69-13.68-35.49-71.67-43.45-78.2-3.03-.41-2.82-.36-5.72.7-2.95 6.7-1.52 65.64-1.45 77.3l-46.16.03z" fill="#8c3c3c"/><path d="M1561.62 1454.05c12.73-.11 27.38-1.6 37.37 7.52 16.66 15.22 16.44 36.89 2.56 53.43-14.24 11.38-22.24 10.79-39.88 11.03-.18-23.99-.19-47.99-.05-71.98" fill="#f3ecd6"/><path d="M1681.92 1406.79c23.35-.17 51.49-1.74 73.98.66 49.63 6.26 72.15 56.76 62.94 102.05-5.34 26.24-15.11 40.51-36.2 55.84 4.36 11.21 13.9 27.33 19.86 38.08 8.89 15.89 17.35 32.01 25.37 48.36l-44.12-.02c-1.71.04-6.44.43-7.69-1.3-10.39-14.37-29.49-70.1-40.73-77.55-3.16-.28-1.8-.71-4.21 1.26-4.06 8.79-1.62 63.51-1.41 77.83-15.74-.07-31.49-.05-47.23.07z" fill="#8c3c3c"/><path d="M1728.82 1453.95c14.44-.32 25.98-.71 37.81 9.47 17.69 15.22 16.28 36.98 1.37 53.3-13.78 11.35-22.09 10.17-39.41 9.99-.95-19.44-.95-53.36.23-72.76" fill="#f3ecd6"/><path d="M584.203 1404.68c4.737 3.92 24.962 27.77 30.235 33.65l66.126 72.9c10.679-11.11 21.923-24.58 32.439-36.12 20.678-22.7 41.405-45.75 60.882-69.47-.462 81.92-.503 163.84-.123 245.75l-43.728-.07-.026-39.8-.232-89.74c-15.355 15.34-34.3 39.88-49.747 56.9-16.628-16.54-35.765-40.83-52.882-59.07q-.042 65.895.873 131.79c-14.751.33-30.005.17-44.798.18 2.718-81.6-1.231-165.53.981-246.9m823.967-.9c2.98 5.59 7.5 19.31 9.82 25.8l16.37 45.51c20.54 56.48 42.92 120.82 65.49 175.91l-45.19.01c-3.78-11.21-7.93-22.3-12.44-33.24l-37.72.01-33.94-.15c-4.87 11.43-9.08 21.41-13.22 33.14l-44.75-.08c15.58-44.07 37.05-94.56 54.64-138.3 14.26-35.97 27.91-72.18 40.94-108.61" fill="#8c3c3c"/><path d="M1408.11 1516.59c5.7 12.64 16 44.14 20.22 57.42l-20.37.05-21.86-.01c7.03-18.78 14.23-39.09 22.01-57.46" fill="#f3ecd6"/><path d="M272.501 1403.35c34.006-3.3 52.928 11.23 74.188 35.15-10.571 11.01-22.69 22.38-32.305 34.08-9.994-12.94-22.315-23.4-39.89-20.46-67.78 11.33-65.116 155.52 10.595 149.33 12.586-1.03 23.093-10.06 30.295-20.13l15.796 16.18 17.662 17.81c-63.265 78.53-152.688 22.31-163.848-63.22-8.145-62.44 16.575-139.43 87.507-148.74m692.298-139.78c8.818-5.82 18.848-12.89 28.311-17.54 3.281-1.61 4.244-.87 6.98.16 6.94 4.39 16.68 8.97 22.73 13.08 12.86 7.4 30.76 16.94 42.82 24.75 3.4 1.63 18.74 9.2 21.01 11.13 4.23 13.38 10.26 31.08 11.56 44.93l-20.17.01-49.81.04q-14.522-.06-29.032.24c-9.75 1.49-50.776.17-62.797.24l-66.31.43c-8.143.04-25.786.71-33.073-.25l-.85-1.36c4.72-3.3 11.346-7.08 16.417-9.93 28.045-15.78 55.656-34.47 84.169-49.26 2.124-2.29 24.225-14.47 28.045-16.67" fill="#8c3c3c"/><path d="M964.799 1263.57c-4.782 25.94-10.883 50.75-17.152 76.34l50.715-.03.836.49c-9.75 1.49-50.776.17-62.797.24l-66.31.43c-8.143.04-25.786.71-33.073-.25l-.85-1.36c4.72-3.3 11.346-7.08 16.417-9.93 28.045-15.78 55.656-34.47 84.169-49.26 2.124-2.29 24.225-14.47 28.045-16.67" fill="#8c3c3c"/><path d="M964.799 1263.57c-4.782 25.94-10.883 50.75-17.152 76.34l50.715-.03.836.49c-9.75 1.49-50.776.17-62.797.24l-66.31.43c-8.143.04-25.786.71-33.073-.25l-.85-1.36c7.493 2.35 70.961.53 83.297.64 3.822-14.1 15.246-48.09 17.289-59.83 2.124-2.29 24.225-14.47 28.045-16.67" fill="#c59990"/><path d="M1022.82 1259.27c12.86 7.4 30.76 16.94 42.82 24.75 3.4 1.63 18.74 9.2 21.01 11.13 4.23 13.38 10.26 31.08 11.56 44.93l-20.17.01-49.81.04c-.52-27.23-3.46-53.77-5.41-80.86" fill="#8c3c3c"/><path d="M1065.64 1284.02c3.4 1.63 18.74 9.2 21.01 11.13 4.23 13.38 10.26 31.08 11.56 44.93l-20.17.01c-3.99-10.59-10.53-44.24-12.4-56.07m-65.55-37.83c6.94 4.39 16.68 8.97 22.73 13.08 1.95 27.09 4.89 53.63 5.41 80.86q-14.522-.06-29.032.24l-.836-.49c.889-3.6.991-19.63 1.094-24.14.498-23.18.714-46.36.634-69.55" fill="#c59990"/><path d="M1086.65 1295.15c23.33 13.35 58.22 34.64 81.13 45.77-22.68-1.14-46.76-.91-69.57-.84-1.3-13.85-7.33-31.55-11.56-44.93" fill="#8c3c3c"/><path d="M990.196 895.261c32.904-.947 64.924 15.859 78.824 46.414 1.91 4.216 2.95 7.521 1.18 11.92-6.58 4.994-8.46-2.183-15.32.356l-.53 1.309-1.03-.132c-6.98-26.924-24.03-47.61-51.64-55.53-4.018-1.153-10.781-2.929-14.485-.812-.601 2.722.133 2.87 1.48 6.039l-1.072.105-2.101-1.863-.1-2.175c1.593-3.483 1.377-3.597 4.794-5.631"/><path d="M990.771 905.27c20.159-.975 44.129 20.647 51.709 38.454 7 16.466 5.99 33.289-.28 49.618l-.92-.228c.45-2.761 1.86-10.676 1.29-13.328-4.58-21.469-26.33-46.867-40.74-63.019-3.333-3.729-10.155-8.28-11.059-11.497"/><path d="M989.38 932.913q1.485-.112 2.973-.167c14.957-.498 27.057 12.614 33.937 24.598 6.69 11.653 6.8 19.629 7.03 32.506.13.026-6.46-.899-5.96-.298-15-17.825-17.45-43.545-37.98-56.639m68.98-37.691c1.12-.197.32-.123 2.39.414 7.15 9.568 17.85 19.597 21.39 30.77 2.58 8.125 1.5 20.729-2.46 28.432-1.51-2.281-1.62-6.572-1.99-9.597-6.34-22.659-18.05-32.652-36.3-45.684 5.91-2.082 10.86-3.031 16.97-4.335"/><path d="M621.65 1312.9c.295 2.28-4.415 21.95-5.128 27.11l-28.884-.18c.53-2.31 29.21-23.18 34.012-26.93" fill="#8c3c3c"/><path d="M978.772 936.349c23.458 3.214 35.288 34.718 38.698 54.991-8.14-14.672-16.66-28.534-26.345-42.241-3.711-5.254-11.369-9.706-12.353-12.75"/></svg>